<svg xmlns="http://www.w3.org/2000/svg" version="1.1" xmlns:xlink="http://www.w3.org/1999/xlink" xmlns:svgjs="http://svgjs.dev/svgjs" viewBox="0 0 800 800" opacity="0.41"><defs><linearGradient x1="50%" y1="0%" x2="50%" y2="100%" id="rrreflection-grad"><stop stop-color="hsla(280, 61%, 20%, 1.00)" stop-opacity="1" offset="45%"></stop><stop stop-color="hsla(8, 43%, 46%, 1.00)" stop-opacity="1" offset="100%"></stop></linearGradient><linearGradient x1="50%" y1="0%" x2="50%" y2="100%" id="rrreflection-grad-2"><stop stop-color="hsla(8, 43%, 46%, 1.00)" stop-opacity="1" offset="0%"></stop><stop stop-color="hsla(280, 61%, 20%, 1.00)" stop-opacity="1" offset="45%"></stop></linearGradient><linearGradient gradientTransform="rotate(270)" x1="50%" y1="0%" x2="50%" y2="100%" id="rrreflection-grad-3"><stop stop-color="hsla(280, 61%, 20%, 1.00)" stop-opacity="1" offset="45%"></stop><stop stop-color="hsla(8, 43%, 46%, 1.00)" stop-opacity="1" offset="100%"></stop></linearGradient><linearGradient gradientTransform="rotate(270)" x1="50%" y1="0%" x2="50%" y2="100%" id="rrreflection-grad-4"><stop stop-color="hsla(8, 43%, 46%, 1.00)" stop-opacity="1" offset="0%"></stop><stop stop-color="hsla(280, 61%, 20%, 1.00)" stop-opacity="1" offset="45%"></stop></linearGradient></defs><g stroke-width="2.5" stroke="url(#rrreflection-grad)" fill="none"><circle r="391.5" cx="50%" cy="0"></circle><circle r="378" cx="50%" cy="0"></circle><circle r="364.5" cx="50%" cy="0"></circle><circle r="351" cx="50%" cy="0"></circle><circle r="337.5" cx="50%" cy="0"></circle><circle r="324" cx="50%" cy="0"></circle><circle r="310.5" cx="50%" cy="0"></circle><circle r="297" cx="50%" cy="0"></circle><circle r="283.5" cx="50%" cy="0"></circle><circle r="270" cx="50%" cy="0"></circle><circle r="256.5" cx="50%" cy="0"></circle><circle r="243" cx="50%" cy="0"></circle><circle r="229.5" cx="50%" cy="0"></circle><circle r="216" cx="50%" cy="0"></circle><circle r="202.5" cx="50%" cy="0"></circle><circle r="189" cx="50%" cy="0"></circle><circle r="175.5" cx="50%" cy="0"></circle><circle r="162" cx="50%" cy="0"></circle><circle r="148.5" cx="50%" cy="0"></circle><circle r="135" cx="50%" cy="0"></circle><circle r="121.5" cx="50%" cy="0"></circle><circle r="108" cx="50%" cy="0"></circle><circle r="94.5" cx="50%" cy="0"></circle><circle r="81" cx="50%" cy="0"></circle><circle r="67.5" cx="50%" cy="0"></circle><circle r="54" cx="50%" cy="0"></circle><circle r="40.5" cx="50%" cy="0"></circle><circle r="27" cx="50%" cy="0"></circle><circle r="13.5" cx="50%" cy="0"></circle></g><g stroke-width="2.5" stroke="url(#rrreflection-grad-2)" fill="none"><circle r="391.5" cx="50%" cy="100%"></circle><circle r="378" cx="50%" cy="100%"></circle><circle r="364.5" cx="50%" cy="100%"></circle><circle r="351" cx="50%" cy="100%"></circle><circle r="337.5" cx="50%" cy="100%"></circle><circle r="324" cx="50%" cy="100%"></circle><circle r="310.5" cx="50%" cy="100%"></circle><circle r="297" cx="50%" cy="100%"></circle><circle r="283.5" cx="50%" cy="100%"></circle><circle r="270" cx="50%" cy="100%"></circle><circle r="256.5" cx="50%" cy="100%"></circle><circle r="243" cx="50%" cy="100%"></circle><circle r="229.5" cx="50%" cy="100%"></circle><circle r="216" cx="50%" cy="100%"></circle><circle r="202.5" cx="50%" cy="100%"></circle><circle r="189" cx="50%" cy="100%"></circle><circle r="175.5" cx="50%" cy="100%"></circle><circle r="162" cx="50%" cy="100%"></circle><circle r="148.5" cx="50%" cy="100%"></circle><circle r="135" cx="50%" cy="100%"></circle><circle r="121.5" cx="50%" cy="100%"></circle><circle r="108" cx="50%" cy="100%"></circle><circle r="94.5" cx="50%" cy="100%"></circle><circle r="81" cx="50%" cy="100%"></circle><circle r="67.5" cx="50%" cy="100%"></circle><circle r="54" cx="50%" cy="100%"></circle><circle r="40.5" cx="50%" cy="100%"></circle><circle r="27" cx="50%" cy="100%"></circle><circle r="13.5" cx="50%" cy="100%"></circle></g><g stroke-width="2.5" stroke="url(#rrreflection-grad-3)" fill="none"><circle r="391.5" cx="0" cy="50%"></circle><circle r="378" cx="0" cy="50%"></circle><circle r="364.5" cx="0" cy="50%"></circle><circle r="351" cx="0" cy="50%"></circle><circle r="337.5" cx="0" cy="50%"></circle><circle r="324" cx="0" cy="50%"></circle><circle r="310.5" cx="0" cy="50%"></circle><circle r="297" cx="0" cy="50%"></circle><circle r="283.5" cx="0" cy="50%"></circle><circle r="270" cx="0" cy="50%"></circle><circle r="256.5" cx="0" cy="50%"></circle><circle r="243" cx="0" cy="50%"></circle><circle r="229.5" cx="0" cy="50%"></circle><circle r="216" cx="0" cy="50%"></circle><circle r="202.5" cx="0" cy="50%"></circle><circle r="189" cx="0" cy="50%"></circle><circle r="175.5" cx="0" cy="50%"></circle><circle r="162" cx="0" cy="50%"></circle><circle r="148.5" cx="0" cy="50%"></circle><circle r="135" cx="0" cy="50%"></circle><circle r="121.5" cx="0" cy="50%"></circle><circle r="108" cx="0" cy="50%"></circle><circle r="94.5" cx="0" cy="50%"></circle><circle r="81" cx="0" cy="50%"></circle><circle r="67.5" cx="0" cy="50%"></circle><circle r="54" cx="0" cy="50%"></circle><circle r="40.5" cx="0" cy="50%"></circle><circle r="27" cx="0" cy="50%"></circle><circle r="13.5" cx="0" cy="50%"></circle></g><g stroke-width="2.5" stroke="url(#rrreflection-grad-4)" fill="none"><circle r="391.5" cx="100%" cy="50%"></circle><circle r="378" cx="100%" cy="50%"></circle><circle r="364.5" cx="100%" cy="50%"></circle><circle r="351" cx="100%" cy="50%"></circle><circle r="337.5" cx="100%" cy="50%"></circle><circle r="324" cx="100%" cy="50%"></circle><circle r="310.5" cx="100%" cy="50%"></circle><circle r="297" cx="100%" cy="50%"></circle><circle r="283.5" cx="100%" cy="50%"></circle><circle r="270" cx="100%" cy="50%"></circle><circle r="256.5" cx="100%" cy="50%"></circle><circle r="243" cx="100%" cy="50%"></circle><circle r="229.5" cx="100%" cy="50%"></circle><circle r="216" cx="100%" cy="50%"></circle><circle r="202.5" cx="100%" cy="50%"></circle><circle r="189" cx="100%" cy="50%"></circle><circle r="175.5" cx="100%" cy="50%"></circle><circle r="162" cx="100%" cy="50%"></circle><circle r="148.5" cx="100%" cy="50%"></circle><circle r="135" cx="100%" cy="50%"></circle><circle r="121.5" cx="100%" cy="50%"></circle><circle r="108" cx="100%" cy="50%"></circle><circle r="94.5" cx="100%" cy="50%"></circle><circle r="81" cx="100%" cy="50%"></circle><circle r="67.5" cx="100%" cy="50%"></circle><circle r="54" cx="100%" cy="50%"></circle><circle r="40.5" cx="100%" cy="50%"></circle><circle r="27" cx="100%" cy="50%"></circle><circle r="13.5" cx="100%" cy="50%"></circle></g></svg>